<mxfile host="app.diagrams.net" agent="Mozilla/5.0 (Macintosh; Intel Mac OS X 10.15; rv:141.0) Gecko/20100101 Firefox/141.0" version="28.2.3">
  <diagram name="Page-1" id="op40LLZUEOIVbdoKdECT">
    <mxGraphModel dx="885" dy="503" grid="1" gridSize="10" guides="1" tooltips="1" connect="1" arrows="1" fold="1" page="1" pageScale="1" pageWidth="850" pageHeight="1100" math="0" shadow="0">
      <root>
        <mxCell id="0" />
        <mxCell id="1" parent="0" />
        <mxCell id="HyX5QL3Xb5OBpIaI5bPw-65" value="" style="rounded=1;whiteSpace=wrap;html=1;fillColor=#d5e8d4;strokeColor=#82b366;" vertex="1" parent="1">
          <mxGeometry x="500" y="310" width="190" height="130" as="geometry" />
        </mxCell>
        <mxCell id="HyX5QL3Xb5OBpIaI5bPw-64" value="" style="rounded=1;whiteSpace=wrap;html=1;fillColor=#f8cecc;strokeColor=#b85450;" vertex="1" parent="1">
          <mxGeometry x="254" y="430" width="236" height="190" as="geometry" />
        </mxCell>
        <mxCell id="HyX5QL3Xb5OBpIaI5bPw-24" style="edgeStyle=orthogonalEdgeStyle;rounded=0;orthogonalLoop=1;jettySize=auto;html=1;entryX=0;entryY=0.25;entryDx=0;entryDy=0;" edge="1" parent="1" source="HyX5QL3Xb5OBpIaI5bPw-1" target="HyX5QL3Xb5OBpIaI5bPw-12">
          <mxGeometry relative="1" as="geometry" />
        </mxCell>
        <mxCell id="HyX5QL3Xb5OBpIaI5bPw-25" value="toma de agua" style="edgeLabel;html=1;align=center;verticalAlign=middle;resizable=0;points=[];" vertex="1" connectable="0" parent="HyX5QL3Xb5OBpIaI5bPw-24">
          <mxGeometry x="-0.1375" y="2" relative="1" as="geometry">
            <mxPoint y="26" as="offset" />
          </mxGeometry>
        </mxCell>
        <mxCell id="HyX5QL3Xb5OBpIaI5bPw-1" value="Administracion" style="shape=umlActor;verticalLabelPosition=bottom;verticalAlign=top;html=1;outlineConnect=0;" vertex="1" parent="1">
          <mxGeometry x="70" y="90" width="30" height="60" as="geometry" />
        </mxCell>
        <mxCell id="HyX5QL3Xb5OBpIaI5bPw-2" value="NARET. APP" style="html=1;verticalLabelPosition=bottom;align=center;labelBackgroundColor=#ffffff;verticalAlign=top;strokeWidth=2;strokeColor=#0080F0;shadow=0;dashed=0;shape=mxgraph.ios7.icons.smartphone;" vertex="1" parent="1">
          <mxGeometry x="550" y="90" width="50" height="90" as="geometry" />
        </mxCell>
        <mxCell id="HyX5QL3Xb5OBpIaI5bPw-3" value="Assets" style="childLayout=tableLayout;recursiveResize=0;strokeColor=#98bf21;fillColor=#A7C942;shadow=1;" vertex="1" parent="1">
          <mxGeometry x="260" y="90" width="170" height="90" as="geometry" />
        </mxCell>
        <mxCell id="HyX5QL3Xb5OBpIaI5bPw-4" style="shape=tableRow;horizontal=0;startSize=0;swimlaneHead=0;swimlaneBody=0;top=0;left=0;bottom=0;right=0;dropTarget=0;collapsible=0;recursiveResize=0;expand=0;fontStyle=0;strokeColor=inherit;fillColor=#ffffff;" vertex="1" parent="HyX5QL3Xb5OBpIaI5bPw-3">
          <mxGeometry width="170" height="19" as="geometry" />
        </mxCell>
        <mxCell id="HyX5QL3Xb5OBpIaI5bPw-5" value="casa" style="connectable=0;recursiveResize=0;strokeColor=inherit;fillColor=#A7C942;align=center;fontStyle=1;fontColor=#FFFFFF;html=1;" vertex="1" parent="HyX5QL3Xb5OBpIaI5bPw-4">
          <mxGeometry width="57" height="19" as="geometry">
            <mxRectangle width="57" height="19" as="alternateBounds" />
          </mxGeometry>
        </mxCell>
        <mxCell id="HyX5QL3Xb5OBpIaI5bPw-6" value="toma" style="connectable=0;recursiveResize=0;strokeColor=inherit;fillColor=#A7C942;align=center;fontStyle=1;fontColor=#FFFFFF;html=1;" vertex="1" parent="HyX5QL3Xb5OBpIaI5bPw-4">
          <mxGeometry x="57" width="57" height="19" as="geometry">
            <mxRectangle width="57" height="19" as="alternateBounds" />
          </mxGeometry>
        </mxCell>
        <mxCell id="HyX5QL3Xb5OBpIaI5bPw-7" value="consumo3" style="connectable=0;recursiveResize=0;strokeColor=inherit;fillColor=#A7C942;align=center;fontStyle=1;fontColor=#FFFFFF;html=1;" vertex="1" parent="HyX5QL3Xb5OBpIaI5bPw-4">
          <mxGeometry x="114" width="56" height="19" as="geometry">
            <mxRectangle width="56" height="19" as="alternateBounds" />
          </mxGeometry>
        </mxCell>
        <mxCell id="HyX5QL3Xb5OBpIaI5bPw-8" value="" style="shape=tableRow;horizontal=0;startSize=0;swimlaneHead=0;swimlaneBody=0;top=0;left=0;bottom=0;right=0;dropTarget=0;collapsible=0;recursiveResize=0;expand=0;fontStyle=0;strokeColor=inherit;fillColor=#ffffff;" vertex="1" parent="HyX5QL3Xb5OBpIaI5bPw-3">
          <mxGeometry y="19" width="170" height="18" as="geometry" />
        </mxCell>
        <mxCell id="HyX5QL3Xb5OBpIaI5bPw-9" value="Value 1" style="connectable=0;recursiveResize=0;strokeColor=inherit;fillColor=inherit;align=center;whiteSpace=wrap;html=1;" vertex="1" parent="HyX5QL3Xb5OBpIaI5bPw-8">
          <mxGeometry width="57" height="18" as="geometry">
            <mxRectangle width="57" height="18" as="alternateBounds" />
          </mxGeometry>
        </mxCell>
        <mxCell id="HyX5QL3Xb5OBpIaI5bPw-10" value="Value 2" style="connectable=0;recursiveResize=0;strokeColor=inherit;fillColor=inherit;align=center;whiteSpace=wrap;html=1;" vertex="1" parent="HyX5QL3Xb5OBpIaI5bPw-8">
          <mxGeometry x="57" width="57" height="18" as="geometry">
            <mxRectangle width="57" height="18" as="alternateBounds" />
          </mxGeometry>
        </mxCell>
        <mxCell id="HyX5QL3Xb5OBpIaI5bPw-11" value="Value 3" style="connectable=0;recursiveResize=0;strokeColor=inherit;fillColor=inherit;align=center;whiteSpace=wrap;html=1;" vertex="1" parent="HyX5QL3Xb5OBpIaI5bPw-8">
          <mxGeometry x="114" width="56" height="18" as="geometry">
            <mxRectangle width="56" height="18" as="alternateBounds" />
          </mxGeometry>
        </mxCell>
        <mxCell id="HyX5QL3Xb5OBpIaI5bPw-12" value="" style="shape=tableRow;horizontal=0;startSize=0;swimlaneHead=0;swimlaneBody=0;top=0;left=0;bottom=0;right=0;dropTarget=0;collapsible=0;recursiveResize=0;expand=0;fontStyle=1;strokeColor=inherit;fillColor=#EAF2D3;" vertex="1" parent="HyX5QL3Xb5OBpIaI5bPw-3">
          <mxGeometry y="37" width="170" height="17" as="geometry" />
        </mxCell>
        <mxCell id="HyX5QL3Xb5OBpIaI5bPw-13" value="Value 4" style="connectable=0;recursiveResize=0;strokeColor=inherit;fillColor=inherit;whiteSpace=wrap;html=1;" vertex="1" parent="HyX5QL3Xb5OBpIaI5bPw-12">
          <mxGeometry width="57" height="17" as="geometry">
            <mxRectangle width="57" height="17" as="alternateBounds" />
          </mxGeometry>
        </mxCell>
        <mxCell id="HyX5QL3Xb5OBpIaI5bPw-14" value="Value 5" style="connectable=0;recursiveResize=0;strokeColor=inherit;fillColor=inherit;whiteSpace=wrap;html=1;" vertex="1" parent="HyX5QL3Xb5OBpIaI5bPw-12">
          <mxGeometry x="57" width="57" height="17" as="geometry">
            <mxRectangle width="57" height="17" as="alternateBounds" />
          </mxGeometry>
        </mxCell>
        <mxCell id="HyX5QL3Xb5OBpIaI5bPw-15" value="Value 6" style="connectable=0;recursiveResize=0;strokeColor=inherit;fillColor=inherit;whiteSpace=wrap;html=1;" vertex="1" parent="HyX5QL3Xb5OBpIaI5bPw-12">
          <mxGeometry x="114" width="56" height="17" as="geometry">
            <mxRectangle width="56" height="17" as="alternateBounds" />
          </mxGeometry>
        </mxCell>
        <mxCell id="HyX5QL3Xb5OBpIaI5bPw-16" value="" style="shape=tableRow;horizontal=0;startSize=0;swimlaneHead=0;swimlaneBody=0;top=0;left=0;bottom=0;right=0;dropTarget=0;collapsible=0;recursiveResize=0;expand=0;fontStyle=0;strokeColor=inherit;fillColor=#ffffff;" vertex="1" parent="HyX5QL3Xb5OBpIaI5bPw-3">
          <mxGeometry y="54" width="170" height="19" as="geometry" />
        </mxCell>
        <mxCell id="HyX5QL3Xb5OBpIaI5bPw-17" value="Value 7" style="connectable=0;recursiveResize=0;strokeColor=inherit;fillColor=inherit;fontStyle=0;align=center;whiteSpace=wrap;html=1;" vertex="1" parent="HyX5QL3Xb5OBpIaI5bPw-16">
          <mxGeometry width="57" height="19" as="geometry">
            <mxRectangle width="57" height="19" as="alternateBounds" />
          </mxGeometry>
        </mxCell>
        <mxCell id="HyX5QL3Xb5OBpIaI5bPw-18" value="Value 8" style="connectable=0;recursiveResize=0;strokeColor=inherit;fillColor=inherit;fontStyle=0;align=center;whiteSpace=wrap;html=1;" vertex="1" parent="HyX5QL3Xb5OBpIaI5bPw-16">
          <mxGeometry x="57" width="57" height="19" as="geometry">
            <mxRectangle width="57" height="19" as="alternateBounds" />
          </mxGeometry>
        </mxCell>
        <mxCell id="HyX5QL3Xb5OBpIaI5bPw-19" value="Value 9" style="connectable=0;recursiveResize=0;strokeColor=inherit;fillColor=inherit;fontStyle=0;align=center;whiteSpace=wrap;html=1;" vertex="1" parent="HyX5QL3Xb5OBpIaI5bPw-16">
          <mxGeometry x="114" width="56" height="19" as="geometry">
            <mxRectangle width="56" height="19" as="alternateBounds" />
          </mxGeometry>
        </mxCell>
        <mxCell id="HyX5QL3Xb5OBpIaI5bPw-20" value="" style="shape=tableRow;horizontal=0;startSize=0;swimlaneHead=0;swimlaneBody=0;top=0;left=0;bottom=0;right=0;dropTarget=0;collapsible=0;recursiveResize=0;expand=0;fontStyle=1;strokeColor=inherit;fillColor=#EAF2D3;" vertex="1" parent="HyX5QL3Xb5OBpIaI5bPw-3">
          <mxGeometry y="73" width="170" height="17" as="geometry" />
        </mxCell>
        <mxCell id="HyX5QL3Xb5OBpIaI5bPw-21" value="Value 10" style="connectable=0;recursiveResize=0;strokeColor=inherit;fillColor=inherit;whiteSpace=wrap;html=1;" vertex="1" parent="HyX5QL3Xb5OBpIaI5bPw-20">
          <mxGeometry width="57" height="17" as="geometry">
            <mxRectangle width="57" height="17" as="alternateBounds" />
          </mxGeometry>
        </mxCell>
        <mxCell id="HyX5QL3Xb5OBpIaI5bPw-22" value="Value 11" style="connectable=0;recursiveResize=0;strokeColor=inherit;fillColor=inherit;whiteSpace=wrap;html=1;" vertex="1" parent="HyX5QL3Xb5OBpIaI5bPw-20">
          <mxGeometry x="57" width="57" height="17" as="geometry">
            <mxRectangle width="57" height="17" as="alternateBounds" />
          </mxGeometry>
        </mxCell>
        <mxCell id="HyX5QL3Xb5OBpIaI5bPw-23" value="Value 12" style="connectable=0;recursiveResize=0;strokeColor=inherit;fillColor=inherit;whiteSpace=wrap;html=1;" vertex="1" parent="HyX5QL3Xb5OBpIaI5bPw-20">
          <mxGeometry x="114" width="56" height="17" as="geometry">
            <mxRectangle width="56" height="17" as="alternateBounds" />
          </mxGeometry>
        </mxCell>
        <mxCell id="HyX5QL3Xb5OBpIaI5bPw-28" style="edgeStyle=orthogonalEdgeStyle;rounded=0;orthogonalLoop=1;jettySize=auto;html=1;entryX=-0.04;entryY=0.511;entryDx=0;entryDy=0;entryPerimeter=0;" edge="1" parent="1" source="HyX5QL3Xb5OBpIaI5bPw-12" target="HyX5QL3Xb5OBpIaI5bPw-2">
          <mxGeometry relative="1" as="geometry" />
        </mxCell>
        <mxCell id="HyX5QL3Xb5OBpIaI5bPw-29" value="1ero del mes" style="shape=mxgraph.sap.icon;labelPosition=center;verticalLabelPosition=bottom;align=center;verticalAlign=top;strokeWidth=1;strokeColor=#D5DADD;fillColor=#EDEFF0;gradientColor=#FCFCFC;gradientDirection=west;aspect=fixed;SAPIcon=Invoice_Object_Recommendation2" vertex="1" parent="1">
          <mxGeometry x="720" y="163" width="67" height="67" as="geometry" />
        </mxCell>
        <mxCell id="HyX5QL3Xb5OBpIaI5bPw-30" style="edgeStyle=orthogonalEdgeStyle;rounded=0;orthogonalLoop=1;jettySize=auto;html=1;entryX=0.494;entryY=0;entryDx=0;entryDy=0;entryPerimeter=0;" edge="1" parent="1" source="HyX5QL3Xb5OBpIaI5bPw-2" target="HyX5QL3Xb5OBpIaI5bPw-29">
          <mxGeometry relative="1" as="geometry" />
        </mxCell>
        <mxCell id="HyX5QL3Xb5OBpIaI5bPw-34" value="ficticia" style="edgeLabel;html=1;align=center;verticalAlign=middle;resizable=0;points=[];" vertex="1" connectable="0" parent="HyX5QL3Xb5OBpIaI5bPw-30">
          <mxGeometry x="-0.2796" y="-4" relative="1" as="geometry">
            <mxPoint as="offset" />
          </mxGeometry>
        </mxCell>
        <mxCell id="HyX5QL3Xb5OBpIaI5bPw-53" value="AGUA" style="edgeLabel;html=1;align=center;verticalAlign=middle;resizable=0;points=[];" vertex="1" connectable="0" parent="HyX5QL3Xb5OBpIaI5bPw-30">
          <mxGeometry x="0.0621" y="-4" relative="1" as="geometry">
            <mxPoint x="-26" y="11" as="offset" />
          </mxGeometry>
        </mxCell>
        <mxCell id="HyX5QL3Xb5OBpIaI5bPw-31" value="Condomino" style="shape=umlActor;verticalLabelPosition=bottom;verticalAlign=top;html=1;outlineConnect=0;" vertex="1" parent="1">
          <mxGeometry x="750" y="10" width="30" height="60" as="geometry" />
        </mxCell>
        <mxCell id="HyX5QL3Xb5OBpIaI5bPw-32" style="edgeStyle=orthogonalEdgeStyle;rounded=0;orthogonalLoop=1;jettySize=auto;html=1;entryX=0;entryY=0.3333333333333333;entryDx=0;entryDy=0;entryPerimeter=0;" edge="1" parent="1" source="HyX5QL3Xb5OBpIaI5bPw-2" target="HyX5QL3Xb5OBpIaI5bPw-31">
          <mxGeometry relative="1" as="geometry">
            <Array as="points">
              <mxPoint x="575" y="30" />
            </Array>
          </mxGeometry>
        </mxCell>
        <mxCell id="HyX5QL3Xb5OBpIaI5bPw-33" value="Notificacion" style="edgeLabel;html=1;align=center;verticalAlign=middle;resizable=0;points=[];" vertex="1" connectable="0" parent="HyX5QL3Xb5OBpIaI5bPw-32">
          <mxGeometry x="0.1745" y="-3" relative="1" as="geometry">
            <mxPoint as="offset" />
          </mxGeometry>
        </mxCell>
        <mxCell id="HyX5QL3Xb5OBpIaI5bPw-41" style="edgeStyle=orthogonalEdgeStyle;rounded=0;orthogonalLoop=1;jettySize=auto;html=1;fillColor=#fa6800;strokeColor=#C73500;exitX=1.033;exitY=0.505;exitDx=0;exitDy=0;exitPerimeter=0;" edge="1" parent="1" source="HyX5QL3Xb5OBpIaI5bPw-47" target="HyX5QL3Xb5OBpIaI5bPw-40">
          <mxGeometry relative="1" as="geometry">
            <mxPoint x="610" y="341" as="sourcePoint" />
          </mxGeometry>
        </mxCell>
        <mxCell id="HyX5QL3Xb5OBpIaI5bPw-42" value="Registro" style="edgeLabel;html=1;align=center;verticalAlign=middle;resizable=0;points=[];" vertex="1" connectable="0" parent="HyX5QL3Xb5OBpIaI5bPw-41">
          <mxGeometry x="0.0952" y="-3" relative="1" as="geometry">
            <mxPoint x="-9" y="-7" as="offset" />
          </mxGeometry>
        </mxCell>
        <mxCell id="HyX5QL3Xb5OBpIaI5bPw-36" value="FacthorAPI" style="aspect=fixed;sketch=0;html=1;dashed=0;whitespace=wrap;verticalLabelPosition=bottom;verticalAlign=top;fillColor=#2875E2;strokeColor=#ffffff;points=[[0.005,0.63,0],[0.1,0.2,0],[0.9,0.2,0],[0.5,0,0],[0.995,0.63,0],[0.72,0.99,0],[0.5,1,0],[0.28,0.99,0]];shape=mxgraph.kubernetes.icon2;prIcon=api" vertex="1" parent="1">
          <mxGeometry x="350" y="324" width="50" height="48" as="geometry" />
        </mxCell>
        <mxCell id="HyX5QL3Xb5OBpIaI5bPw-37" style="edgeStyle=orthogonalEdgeStyle;rounded=0;orthogonalLoop=1;jettySize=auto;html=1;exitX=0.052;exitY=0.468;exitDx=0;exitDy=0;exitPerimeter=0;fillColor=#fa6800;strokeColor=#C73500;" edge="1" parent="1">
          <mxGeometry relative="1" as="geometry">
            <mxPoint x="720.0040000000001" y="199.03599999999994" as="sourcePoint" />
            <mxPoint x="400" y="340" as="targetPoint" />
            <Array as="points">
              <mxPoint x="636" y="199" />
              <mxPoint x="636" y="270" />
              <mxPoint x="480" y="270" />
              <mxPoint x="480" y="340" />
              <mxPoint x="402" y="340" />
            </Array>
          </mxGeometry>
        </mxCell>
        <mxCell id="HyX5QL3Xb5OBpIaI5bPw-38" value="electronica" style="edgeLabel;html=1;align=center;verticalAlign=middle;resizable=0;points=[];" vertex="1" connectable="0" parent="HyX5QL3Xb5OBpIaI5bPw-37">
          <mxGeometry x="0.1091" y="-1" relative="1" as="geometry">
            <mxPoint x="19" y="1" as="offset" />
          </mxGeometry>
        </mxCell>
        <mxCell id="HyX5QL3Xb5OBpIaI5bPw-52" value="JSON" style="edgeLabel;html=1;align=center;verticalAlign=middle;resizable=0;points=[];" vertex="1" connectable="0" parent="HyX5QL3Xb5OBpIaI5bPw-37">
          <mxGeometry x="-0.4505" y="1" relative="1" as="geometry">
            <mxPoint as="offset" />
          </mxGeometry>
        </mxCell>
        <mxCell id="HyX5QL3Xb5OBpIaI5bPw-39" style="edgeStyle=orthogonalEdgeStyle;rounded=0;orthogonalLoop=1;jettySize=auto;html=1;entryX=-0.02;entryY=0.7;entryDx=0;entryDy=0;entryPerimeter=0;fillColor=#fa6800;strokeColor=#C73500;exitX=0.5;exitY=0;exitDx=0;exitDy=0;exitPerimeter=0;" edge="1" parent="1" source="HyX5QL3Xb5OBpIaI5bPw-36" target="HyX5QL3Xb5OBpIaI5bPw-2">
          <mxGeometry relative="1" as="geometry">
            <Array as="points">
              <mxPoint x="375" y="260" />
              <mxPoint x="460" y="260" />
              <mxPoint x="460" y="153" />
            </Array>
          </mxGeometry>
        </mxCell>
        <mxCell id="HyX5QL3Xb5OBpIaI5bPw-46" value="XML" style="edgeLabel;html=1;align=center;verticalAlign=middle;resizable=0;points=[];" vertex="1" connectable="0" parent="HyX5QL3Xb5OBpIaI5bPw-39">
          <mxGeometry x="0.0657" y="-3" relative="1" as="geometry">
            <mxPoint x="-38" y="34" as="offset" />
          </mxGeometry>
        </mxCell>
        <mxCell id="HyX5QL3Xb5OBpIaI5bPw-40" value="NetSuite" style="image;aspect=fixed;html=1;points=[];align=center;fontSize=12;image=img/lib/azure2/app_services/API_Management_Services.svg;" vertex="1" parent="1">
          <mxGeometry x="726" y="324" width="65" height="60" as="geometry" />
        </mxCell>
        <mxCell id="HyX5QL3Xb5OBpIaI5bPw-43" style="edgeStyle=orthogonalEdgeStyle;rounded=0;orthogonalLoop=1;jettySize=auto;html=1;" edge="1" parent="1" source="HyX5QL3Xb5OBpIaI5bPw-29">
          <mxGeometry relative="1" as="geometry">
            <mxPoint x="730" y="300" as="targetPoint" />
          </mxGeometry>
        </mxCell>
        <mxCell id="HyX5QL3Xb5OBpIaI5bPw-44" value="Manual x 12k" style="edgeLabel;html=1;align=center;verticalAlign=middle;resizable=0;points=[];" vertex="1" connectable="0" parent="HyX5QL3Xb5OBpIaI5bPw-43">
          <mxGeometry x="0.0286" y="2" relative="1" as="geometry">
            <mxPoint as="offset" />
          </mxGeometry>
        </mxCell>
        <mxCell id="HyX5QL3Xb5OBpIaI5bPw-47" value="" style="image;aspect=fixed;html=1;points=[];align=center;fontSize=12;image=img/lib/azure2/devops/API_Connections.svg;" vertex="1" parent="1">
          <mxGeometry x="580" y="324" width="39.01" height="26" as="geometry" />
        </mxCell>
        <mxCell id="HyX5QL3Xb5OBpIaI5bPw-49" value="" style="shape=cylinder3;whiteSpace=wrap;html=1;boundedLbl=1;backgroundOutline=1;size=15;" vertex="1" parent="1">
          <mxGeometry x="520" y="370" width="50" height="60" as="geometry" />
        </mxCell>
        <mxCell id="HyX5QL3Xb5OBpIaI5bPw-51" style="edgeStyle=orthogonalEdgeStyle;rounded=0;orthogonalLoop=1;jettySize=auto;html=1;entryX=0;entryY=0.5;entryDx=0;entryDy=0;entryPerimeter=0;" edge="1" parent="1" source="HyX5QL3Xb5OBpIaI5bPw-36" target="HyX5QL3Xb5OBpIaI5bPw-49">
          <mxGeometry relative="1" as="geometry" />
        </mxCell>
        <mxCell id="HyX5QL3Xb5OBpIaI5bPw-55" style="edgeStyle=orthogonalEdgeStyle;rounded=0;orthogonalLoop=1;jettySize=auto;html=1;" edge="1" parent="1" source="HyX5QL3Xb5OBpIaI5bPw-54">
          <mxGeometry relative="1" as="geometry">
            <mxPoint x="754" y="390" as="targetPoint" />
          </mxGeometry>
        </mxCell>
        <mxCell id="HyX5QL3Xb5OBpIaI5bPw-56" value="&lt;div&gt;Manual&lt;/div&gt;&lt;div&gt;&lt;br&gt;&lt;/div&gt;&lt;div&gt;Multas, cuotas mantenimiento, etc&lt;/div&gt;&lt;div&gt;&lt;br&gt;&lt;/div&gt;&lt;div&gt;Cargos adicionales, quickpass, etc&lt;/div&gt;" style="edgeLabel;html=1;align=center;verticalAlign=middle;resizable=0;points=[];" vertex="1" connectable="0" parent="HyX5QL3Xb5OBpIaI5bPw-55">
          <mxGeometry x="-0.1111" y="1" relative="1" as="geometry">
            <mxPoint x="-3" y="-54" as="offset" />
          </mxGeometry>
        </mxCell>
        <mxCell id="HyX5QL3Xb5OBpIaI5bPw-54" value="Agentes Naret" style="shape=umlActor;verticalLabelPosition=bottom;verticalAlign=top;html=1;outlineConnect=0;" vertex="1" parent="1">
          <mxGeometry x="640" y="570" width="30" height="60" as="geometry" />
        </mxCell>
        <mxCell id="HyX5QL3Xb5OBpIaI5bPw-59" style="edgeStyle=orthogonalEdgeStyle;rounded=0;orthogonalLoop=1;jettySize=auto;html=1;entryX=0.393;entryY=1.029;entryDx=0;entryDy=0;entryPerimeter=0;" edge="1" parent="1" source="HyX5QL3Xb5OBpIaI5bPw-49" target="HyX5QL3Xb5OBpIaI5bPw-47">
          <mxGeometry relative="1" as="geometry" />
        </mxCell>
        <mxCell id="HyX5QL3Xb5OBpIaI5bPw-69" style="edgeStyle=orthogonalEdgeStyle;rounded=0;orthogonalLoop=1;jettySize=auto;html=1;entryX=1;entryY=0;entryDx=0;entryDy=0;" edge="1" parent="1" source="HyX5QL3Xb5OBpIaI5bPw-60" target="HyX5QL3Xb5OBpIaI5bPw-66">
          <mxGeometry relative="1" as="geometry" />
        </mxCell>
        <mxCell id="HyX5QL3Xb5OBpIaI5bPw-60" value="Cargos adicionales" style="verticalLabelPosition=bottom;aspect=fixed;html=1;shape=mxgraph.salesforce.web;fillColorStyles=fillColor2,fillColor3,fillColor4;fillColor2=#032d60;fillColor3=#0d9dda;fillColor4=#ffffff;fillColor=none;strokeColor=none;" vertex="1" parent="1">
          <mxGeometry x="400" y="522.6" width="60" height="47.400000000000006" as="geometry" />
        </mxCell>
        <mxCell id="HyX5QL3Xb5OBpIaI5bPw-61" style="edgeStyle=orthogonalEdgeStyle;rounded=0;orthogonalLoop=1;jettySize=auto;html=1;entryX=0.986;entryY=0.699;entryDx=0;entryDy=0;entryPerimeter=0;" edge="1" parent="1" source="HyX5QL3Xb5OBpIaI5bPw-54" target="HyX5QL3Xb5OBpIaI5bPw-60">
          <mxGeometry relative="1" as="geometry" />
        </mxCell>
        <mxCell id="HyX5QL3Xb5OBpIaI5bPw-62" style="edgeStyle=orthogonalEdgeStyle;rounded=0;orthogonalLoop=1;jettySize=auto;html=1;entryX=0.446;entryY=0.007;entryDx=0;entryDy=0;entryPerimeter=0;" edge="1" parent="1" source="HyX5QL3Xb5OBpIaI5bPw-36" target="HyX5QL3Xb5OBpIaI5bPw-60">
          <mxGeometry relative="1" as="geometry">
            <Array as="points">
              <mxPoint x="250" y="348" />
              <mxPoint x="250" y="447" />
              <mxPoint x="427" y="447" />
            </Array>
          </mxGeometry>
        </mxCell>
        <mxCell id="HyX5QL3Xb5OBpIaI5bPw-63" value="&lt;div&gt;emisor = 12345&lt;/div&gt;&lt;div&gt;agregue cargos adicionales&lt;/div&gt;&lt;div&gt;&lt;br&gt;&lt;/div&gt;&lt;div&gt;definir la fecha en que se factura&lt;/div&gt;" style="edgeLabel;html=1;align=center;verticalAlign=middle;resizable=0;points=[];" vertex="1" connectable="0" parent="HyX5QL3Xb5OBpIaI5bPw-62">
          <mxGeometry x="0.232" y="-1" relative="1" as="geometry">
            <mxPoint x="10" y="32" as="offset" />
          </mxGeometry>
        </mxCell>
        <mxCell id="HyX5QL3Xb5OBpIaI5bPw-66" value="" style="image;aspect=fixed;perimeter=ellipsePerimeter;html=1;align=center;shadow=0;dashed=0;fontColor=#4277BB;labelBackgroundColor=default;fontSize=12;spacingTop=3;image=img/lib/ibm/management/process_management.svg;" vertex="1" parent="1">
          <mxGeometry x="270" y="540" width="50" height="50" as="geometry" />
        </mxCell>
        <mxCell id="HyX5QL3Xb5OBpIaI5bPw-67" style="edgeStyle=orthogonalEdgeStyle;rounded=0;orthogonalLoop=1;jettySize=auto;html=1;entryX=-0.004;entryY=0.244;entryDx=0;entryDy=0;entryPerimeter=0;" edge="1" parent="1" source="HyX5QL3Xb5OBpIaI5bPw-66" target="HyX5QL3Xb5OBpIaI5bPw-36">
          <mxGeometry relative="1" as="geometry">
            <Array as="points">
              <mxPoint x="230" y="585" />
              <mxPoint x="230" y="336" />
            </Array>
          </mxGeometry>
        </mxCell>
      </root>
    </mxGraphModel>
  </diagram>
</mxfile>
